<?xml version="1.0" encoding="utf-8"?>
<!-- Generator: Adobe Illustrator 22.0.1, SVG Export Plug-In . SVG Version: 6.00 Build 0)  -->
<svg version="1.1" id="Layer_1" xmlns="http://www.w3.org/2000/svg" xmlns:xlink="http://www.w3.org/1999/xlink" x="0px" y="0px"
	 viewBox="0 0 19.2 18.6" style="enable-background:new 0 0 19.2 18.6;" xml:space="preserve">
<path id="Forma_1" d="M1.6,10.6H3v5.6c0,0.3,0.3,0.6,0.6,0.6h4.1c0.3,0,0.6-0.3,0.6-0.6v-4.1h2.5v4.1c0,0.3,0.3,0.6,0.6,0.6h3.9
	c0.3,0,0.6-0.3,0.6-0.6v-5.6h1.7c0.3,0,0.6-0.3,0.6-0.6c0-0.2-0.1-0.3-0.2-0.4l-7.9-8c-0.2-0.2-0.6-0.2-0.8,0l-8.2,8
	C1,9.8,0.9,10,1,10.3C1.1,10.5,1.3,10.6,1.6,10.6z M9.8,2.9l6.4,6.5h-0.9c-0.3,0-0.6,0.3-0.6,0.6v5.6H12v-4.1c0-0.3-0.3-0.6-0.6-0.6
	H7.7c-0.3,0-0.6,0.3-0.6,0.6v4.1H4.2V10c0-0.3-0.3-0.6-0.6-0.6l0,0H3.1L9.8,2.9z"/>
</svg>
