<?xml version="1.0" encoding="utf-8"?>
<!-- Generator: Adobe Illustrator 22.1.0, SVG Export Plug-In . SVG Version: 6.00 Build 0)  -->
<svg version="1.1" id="Layer_1" xmlns="http://www.w3.org/2000/svg" xmlns:xlink="http://www.w3.org/1999/xlink" x="0px" y="0px"
	 viewBox="0 0 612 371.9" style="enable-background:new 0 0 612 371.9;" xml:space="preserve">
<style type="text/css">
	.st0{fill:#E22722;}
</style>
<g>
	<g>
		<path class="st0" d="M611.6,31.3C611.6,14,597.5,0,580.2,0c0,0,0,0,0,0L31.3,0.8C22.9,0.8,15.1,4,9.1,10C3.2,15.9,0,23.8,0,32.1
			l0.4,308.4c0,8.4,3.3,16.2,9.2,22.2c5.9,5.9,13.8,9.2,22.1,9.2c0,0,0,0,0,0l548.9-0.8c17.3,0,31.3-14.1,31.3-31.4L611.6,31.3z
			 M545.8,31.4L306,198.1L65.8,32.1L545.8,31.4z M407.4,229.5l142.2,110.3L62,340.5l143.1-111c6.8-5.3,8.1-15.2,2.8-22
			c-5.3-6.8-15.2-8.1-22-2.8L31.7,324.3L31.4,46.4L297.1,230c2.7,1.9,5.8,2.8,8.9,2.8c3.1,0,6.3-0.9,8.9-2.8L580.2,45.6l0.4,278.6
			l-154-119.4c-6.8-5.3-16.7-4.1-22,2.8C399.3,214.4,400.6,224.2,407.4,229.5z"/>
	</g>
</g>
</svg>
