<?xml version="1.0" encoding="utf-8"?>
<!-- Generator: Adobe Illustrator 22.1.0, SVG Export Plug-In . SVG Version: 6.00 Build 0)  -->
<svg version="1.1" id="Warstwa_1" xmlns="http://www.w3.org/2000/svg" xmlns:xlink="http://www.w3.org/1999/xlink" x="0px" y="0px"
	 viewBox="0 0 409.2 410" style="enable-background:new 0 0 409.2 410;" xml:space="preserve">
<style type="text/css">
	.st0{fill:#E22722;}
</style>
<g>
	<path class="st0" d="M386.4,186c-7.9-77.1-65.2-142.4-141-159.7c-3.5-0.8-7,1.4-7.8,4.9c-0.8,3.5,1.4,7,4.9,7.8
		c41.4,9.4,76.7,34.3,100.4,67.6H319c-3.6,0-6.5,2.9-6.5,6.5c0,3.6,2.9,6.5,6.5,6.5h32.3c11.8,20.2,19.5,43,22,67
		c-5,2.1-8.9,6.3-10.7,11.5h-40.4c-3.6,0-6.5,2.9-6.5,6.5c0,3.6,2.9,6.5,6.5,6.5h40.4c2.7,7.6,9.9,13.1,18.4,13.1
		c10.8,0,19.6-8.8,19.6-19.6C400.6,195.9,394.6,188.4,386.4,186L386.4,186z M381,211.3c-3.6,0-6.5-2.9-6.5-6.5
		c0-3.5,2.8-6.4,6.3-6.5c0.1,0,0.1,0,0.2,0c0,0,0.1,0,0.1,0c3.6,0,6.5,2.9,6.5,6.5C387.5,208.4,384.6,211.3,381,211.3L381,211.3z
		 M381,211.3"/>
	<path class="st0" d="M30.2,175.1c0.5,0.1,0.9,0.1,1.3,0.1c3,0,5.8-2.1,6.4-5.2c2.7-13,7-25.5,12.6-37.5c1.1,0.2,2.2,0.3,3.4,0.3
		c10.8,0,19.6-8.8,19.6-19.6c0-10.8-8.8-19.6-19.6-19.6c-10.8,0-19.6,8.8-19.6,19.6c0,4.9,1.9,9.3,4.8,12.8
		c-6.3,13.2-11.1,27-14,41.3C24.4,170.9,26.7,174.4,30.2,175.1L30.2,175.1z M54,106.7c3.6,0,6.5,2.9,6.5,6.5c0,3.6-2.9,6.5-6.5,6.5
		c-3.6,0-6.5-2.9-6.5-6.5C47.4,109.6,50.4,106.7,54,106.7L54,106.7z M54,106.7"/>
	<path class="st0" d="M166.3,370.5C96.1,354.4,43.1,294.1,35.5,222.8c7-3,11.9-10,11.9-18c0-10.8-8.8-19.6-19.6-19.6
		c-10.8,0-19.6,8.8-19.6,19.6c0,8.9,6,16.4,14.2,18.8c7.9,77.1,65.1,142.3,140.9,159.7c0.5,0.1,1,0.2,1.5,0.2c3,0,5.7-2,6.4-5.1
		C172,374.8,169.8,371.3,166.3,370.5L166.3,370.5z M28,211.3C27.9,211.3,27.9,211.3,28,211.3c-0.1,0-0.2,0-0.2,0
		c-3.6,0-6.5-2.9-6.5-6.5c0-3.6,2.9-6.5,6.5-6.5c3.6,0,6.5,2.9,6.5,6.5C34.4,208.4,31.5,211.2,28,211.3L28,211.3z M28,211.3"/>
	<path class="st0" d="M378.5,234.6c-3.6-0.7-7,1.5-7.7,5.1c-3.7,18-10.4,34.9-19.3,50.2H319c-3.6,0-6.5,2.9-6.5,6.5
		c0,3.6,2.9,6.5,6.5,6.5h24.2c-26.7,37.5-68.1,63.6-115.1,70.1c14.4-11.3,34.3-30.2,50.8-57.5c1.3,0.3,2.7,0.4,4,0.4
		c10.8,0,19.6-8.8,19.6-19.6c0-6-2.8-11.3-7-14.9c9-23.9,13.6-49.6,13.6-76.6c0-27.6-4.3-53.5-12.8-77.2c3.8-3.6,6.3-8.7,6.3-14.3
		c0-10.8-8.8-19.6-19.6-19.6c-0.8,0-1.6,0.1-2.4,0.2c-18.5-31.6-41.9-51.4-56.8-61.7c0.3-1.3,0.4-2.6,0.4-4
		c0-10.8-8.8-19.6-19.6-19.6c-8.9,0-16.4,6-18.7,14.1c-44.5,4.5-85.6,25-116,58.2c-2.4,2.7-2.3,6.8,0.4,9.2c1.3,1.2,2.8,1.7,4.4,1.7
		c1.8,0,3.5-0.7,4.8-2.1c26.9-29.2,62.6-47.9,101.6-53.3c-16.9,13.3-40.5,36.2-58,70.2H90c-3.6,0-6.5,2.9-6.5,6.5
		c0,3.6,2.9,6.5,6.5,6.5h26.8c-9.4,22-15.9,48.1-16.7,78.5h-33c-3.6,0-6.5,2.9-6.5,6.5c0,3.6,2.9,6.5,6.5,6.5H100
		c0.8,30.6,6.7,56.7,15.5,78.5H90c-3.6,0-6.5,2.9-6.5,6.5c0,3.6,2.9,6.5,6.5,6.5h31.4c19.1,39,46.5,62.5,63.9,74.5
		c-0.3,1.3-0.4,2.6-0.4,4c0,10.8,8.8,19.6,19.6,19.6c8.9,0,16.4-6,18.8-14.2c78.7-8.1,144.3-66.7,160.4-144.5
		C384.4,238.8,382.1,235.3,378.5,234.6L378.5,234.6z M282.9,302.9c-3.6,0-6.5-2.9-6.5-6.5c0-3.6,2.9-6.5,6.5-6.5
		c3.6,0,6.5,2.9,6.5,6.5C289.4,300,286.5,302.9,282.9,302.9L282.9,302.9z M282.9,106.7c3.6,0,6.5,2.9,6.5,6.5c0,3.6-2.9,6.5-6.5,6.5
		c-3.6,0-6.5-2.9-6.5-6.5C276.3,109.6,279.3,106.7,282.9,106.7L282.9,106.7z M204.4,21.7c3.6,0,6.5,2.9,6.5,6.5
		c0,3.6-2.9,6.5-6.5,6.5c-3.6,0-6.4-2.9-6.5-6.4c0,0,0,0,0-0.1c0,0,0-0.1,0-0.1C197.9,24.6,200.8,21.7,204.4,21.7L204.4,21.7z
		 M210.9,204.8c0,3.6-2.9,6.5-6.5,6.5c-3.6,0-6.5-2.9-6.5-6.5c0-3.6,2.9-6.5,6.5-6.5C208,198.3,210.9,201.2,210.9,204.8L210.9,204.8
		z M133.2,297.3c0-0.3,0.2-0.6,0.2-0.9c0-2.3-1.2-4.2-3-5.4c-10.3-23.1-17.5-51.5-17.5-86.2c0-35.6,8.3-65.1,20-89c0,0,0,0,0,0
		c17.8-36.3,43.4-59.7,59.8-71.9c1.6,1.2,3.3,2.1,5.2,2.8v60.1h-45.8c-3.6,0-6.5,2.9-6.5,6.5c0,3.6,2.9,6.5,6.5,6.5h45.8v66.6
		c-5.5,2-9.9,6.3-11.9,11.9h-53.5c-3.6,0-6.5,2.9-6.5,6.5c0,3.6,2.9,6.5,6.5,6.5H186c2,5.5,6.3,9.9,11.9,11.9v66.6h-45.8
		c-3.6,0-6.5,2.9-6.5,6.5c0,3.6,2.9,6.5,6.5,6.5h45.8V363c-2.1,0.8-4.1,1.9-5.8,3.3C175.9,355,150.8,333.1,133.2,297.3L133.2,297.3z
		 M204.4,387.9c-3.6,0-6.5-2.9-6.5-6.5s2.9-6.5,6.5-6.5c3.6,0,6.4,2.9,6.5,6.4c0,0,0,0,0,0.1c0,0,0,0.1,0,0.1
		C210.9,385,208,387.9,204.4,387.9L204.4,387.9z M216.1,365.7c-1.6-1.2-3.3-2.1-5.2-2.8V223.2c7.6-2.7,13.1-9.9,13.1-18.4
		c0-8.5-5.5-15.7-13.1-18.4V46.6c2.1-0.8,4.1-1.9,5.8-3.3c13.8,9.6,35,27.7,52,56.4c-1.9,2-3.3,4.3-4.2,7h-37.2
		c-3.6,0-6.5,2.9-6.5,6.5c0,3.6,2.9,6.5,6.5,6.5h37.2c2.7,7.6,9.9,13.1,18.4,13.1c0.4,0,0.9-0.1,1.3-0.1c7.1,20.2,11,42.2,11.6,65.5
		h-52.2c-3.6,0-6.5,2.9-6.5,6.5c0,3.6,2.9,6.5,6.5,6.5h52.2c-0.7,23-4.9,45-12.6,65.4c-0.1,0-0.2,0-0.4,0c-8.5,0-15.7,5.5-18.4,13.1
		h-37.2c-3.6,0-6.5,2.9-6.5,6.5c0,3.6,2.9,6.5,6.5,6.5h37.2c0.8,2.1,1.9,4.1,3.3,5.8C250.7,336.9,229.7,355.6,216.1,365.7
		L216.1,365.7z M216.1,365.7"/>
</g>
</svg>
