<?xml version="1.0" encoding="utf-8"?>
<!-- Generator: Adobe Illustrator 22.1.0, SVG Export Plug-In . SVG Version: 6.00 Build 0)  -->
<svg version="1.1" id="Warstwa_1" xmlns="http://www.w3.org/2000/svg" xmlns:xlink="http://www.w3.org/1999/xlink" x="0px" y="0px"
	 viewBox="0 0 421 424" style="enable-background:new 0 0 421 424;" xml:space="preserve">
<style type="text/css">
	.st0{fill-rule:evenodd;clip-rule:evenodd;}
</style>
<g>
	<path d="M211,7C97.9,7,6.2,98.7,6.2,211.8c0,113.1,91.7,204.8,204.8,204.8c113.1,0,204.8-91.7,204.8-204.8
		C415.8,98.7,324.1,7,211,7L211,7z M211,384.6c-95.4,0-172.8-77.4-172.8-172.8C38.2,116.4,115.6,39,211,39
		c95.4,0,172.8,77.4,172.8,172.8C383.8,307.2,306.4,384.6,211,384.6L211,384.6z M211,384.6"/>
	<path class="st0" d="M259.6,180.4H224v-26c0-8,8.2-9.8,12.1-9.8h23v-35.1l-26.4-0.1c-36,0-44.2,26.2-44.2,42.9v28.1h-26.1v36.2
		h26.1v97.6H224v-97.6h30.1L259.6,180.4z M259.6,180.4"/>
</g>
</svg>
